<?xml version="1.0" standalone="no"?>
<!DOCTYPE svg PUBLIC "-//W3C//DTD SVG 20010904//EN"
 "http://www.w3.org/TR/2001/REC-SVG-20010904/DTD/svg10.dtd">
<svg version="1.0" xmlns="http://www.w3.org/2000/svg"
 width="2000.000000pt" height="1500.000000pt" viewBox="0 0 2000.000000 1500.000000"
 preserveAspectRatio="xMidYMid meet">

<g transform="translate(0.000000,1500.000000) scale(0.100000,-0.100000)"
fill="#000000" stroke="none">
<path d="M11075 12169 c-1034 -77 -1992 -482 -2774 -1173 l-114 -101 132 -3
132 -3 102 84 c697 570 1472 896 2382 1004 212 25 738 25 950 0 561 -67 1044
-207 1520 -443 962 -476 1734 -1296 2149 -2282 469 -1115 469 -2379 0 -3494
-242 -574 -641 -1143 -1088 -1550 -739 -674 -1580 -1056 -2581 -1174 -211 -25
-727 -26 -943 -1 -888 101 -1672 426 -2358 979 l-135 109 -131 -3 -132 -3 106
-94 c732 -644 1590 -1035 2538 -1155 432 -55 926 -44 1365 30 1258 212 2394
947 3102 2009 909 1365 1042 3085 353 4573 -237 513 -554 958 -977 1372 -795
779 -1828 1242 -2943 1320 -167 11 -494 11 -655 -1z"/>
<path d="M6973 10379 c-559 -65 -957 -365 -1069 -808 -67 -263 -44 -573 57
-774 112 -222 274 -370 554 -507 152 -74 245 -112 570 -231 250 -92 439 -196
543 -300 111 -111 152 -209 152 -364 0 -340 -246 -505 -752 -505 -329 0 -610
61 -921 201 -61 27 -112 47 -114 45 -6 -5 -203 -556 -203 -567 0 -22 259 -131
425 -179 300 -87 521 -114 890 -107 291 5 414 20 600 73 422 121 686 367 781
730 21 81 27 130 31 264 10 322 -47 538 -198 740 -165 222 -387 355 -939 565
-356 135 -521 223 -635 339 -100 102 -143 219 -132 361 23 302 303 455 764
417 248 -21 478 -80 663 -171 45 -23 85 -40 87 -37 7 7 213 551 213 563 0 37
-359 172 -582 218 -194 41 -581 58 -785 34z"/>
<path d="M9160 8330 l0 -1970 355 0 355 0 0 1970 0 1970 -355 0 -355 0 0
-1970z"/>
<path d="M11930 10240 c-59 -117 -285 -621 -431 -962 -308 -718 -656 -1626
-1072 -2788 l-44 -125 365 -3 c201 -1 369 1 373 5 4 5 64 170 133 368 70 198
142 403 160 455 l34 95 833 0 833 0 13 -35 c7 -19 77 -215 157 -436 80 -221
148 -413 152 -428 l6 -26 384 0 c211 0 384 3 384 8 0 23 -344 962 -540 1472
-341 888 -600 1513 -882 2125 -66 143 -127 277 -136 297 l-17 38 -337 0 -338
0 -30 -60z m443 -910 c168 -409 557 -1429 557 -1461 0 -5 -251 -9 -650 -9
-357 0 -650 3 -650 7 0 32 431 1161 565 1478 72 171 85 199 90 193 2 -2 41
-95 88 -208z"/>
</g>
</svg>
